<svg xmlns="http://www.w3.org/2000/svg" viewBox="0 0 900 1600" width="900" height="1600">
<defs><clipPath id="globeClip"><circle cx="450" cy="790" r="215"/></clipPath></defs>
<g clip-path="url(#globeClip)">
<path d="M 413.0,990.0 L 419.0,993.0 L 439.0,994.0 L 438.0,992.0 Z" fill="#5CB0FB" fill-rule="evenodd"/>
<path d="M 492.0,991.0 L 488.0,988.0 L 477.0,988.0 L 467.0,991.0 L 463.0,989.0 L 457.0,990.0 L 451.0,995.0 L 478.0,994.0 Z" fill="#5CB0FB" fill-rule="evenodd"/>
<path d="M 594.0,932.0 L 594.0,936.0 L 597.0,936.0 L 598.0,933.0 Z" fill="#5CB0FB" fill-rule="evenodd"/>
<path d="M 372.0,863.0 L 365.0,870.0 L 360.0,871.0 L 361.0,881.0 L 359.0,887.0 L 364.0,894.0 L 369.0,891.0 L 372.0,871.0 L 374.0,870.0 Z" fill="#5CB0FB" fill-rule="evenodd"/>
<path d="M 614.0,847.0 L 612.0,847.0 L 611.0,857.0 L 607.0,865.0 L 595.0,859.0 L 598.0,851.0 L 590.0,852.0 L 585.0,855.0 L 582.0,863.0 L 574.0,861.0 L 560.0,878.0 L 544.0,885.0 L 540.0,890.0 L 539.0,899.0 L 542.0,912.0 L 539.0,917.0 L 544.0,918.0 L 550.0,914.0 L 557.0,914.0 L 564.0,909.0 L 578.0,906.0 L 584.0,910.0 L 584.0,913.0 L 589.0,909.0 L 591.0,911.0 L 591.0,923.0 L 595.0,924.0 L 609.0,920.0 L 625.0,897.0 L 628.0,886.0 L 628.0,880.0 L 623.0,873.0 L 623.0,868.0 L 618.0,864.0 L 618.0,854.0 L 614.0,851.0 Z" fill="#5CB0FB" fill-rule="evenodd"/>
<path d="M 523.0,847.0 L 525.0,849.0 L 544.0,850.0 L 539.0,847.0 Z" fill="#5CB0FB" fill-rule="evenodd"/>
<path d="M 558.0,828.0 L 557.0,834.0 L 561.0,831.0 L 564.0,835.0 L 562.0,829.0 Z" fill="#5CB0FB" fill-rule="evenodd"/>
<path d="M 588.0,820.0 L 589.0,823.0 L 592.0,822.0 L 592.0,820.0 Z" fill="#5CB0FB" fill-rule="evenodd"/>
<path d="M 591.0,825.0 L 602.0,828.0 L 606.0,834.0 L 605.0,836.0 L 613.0,837.0 L 616.0,831.0 L 621.0,831.0 L 625.0,836.0 L 628.0,835.0 L 622.0,828.0 L 623.0,825.0 L 618.0,821.0 L 601.0,819.0 L 596.0,826.0 Z" fill="#5CB0FB" fill-rule="evenodd"/>
<path d="M 495.0,819.0 L 513.0,841.0 L 519.0,845.0 L 522.0,843.0 L 522.0,836.0 L 519.0,837.0 L 514.0,830.0 L 500.0,820.0 Z" fill="#5CB0FB" fill-rule="evenodd"/>
<path d="M 454.0,811.0 L 453.0,814.0 L 454.0,817.0 L 456.0,817.0 L 457.0,815.0 Z" fill="#5CB0FB" fill-rule="evenodd"/>
<path d="M 553.0,810.0 L 549.0,808.0 L 546.0,814.0 L 543.0,815.0 L 535.0,825.0 L 530.0,826.0 L 534.0,835.0 L 542.0,835.0 L 545.0,837.0 L 548.0,835.0 L 548.0,831.0 L 553.0,823.0 L 550.0,817.0 Z" fill="#5CB0FB" fill-rule="evenodd"/>
<path d="M 502.0,808.0 L 507.0,814.0 L 509.0,822.0 L 515.0,826.0 L 514.0,818.0 L 507.0,814.0 Z" fill="#5CB0FB" fill-rule="evenodd"/>
<path d="M 570.0,796.0 L 566.0,800.0 L 563.0,800.0 L 566.0,801.0 L 568.0,805.0 L 571.0,801.0 Z" fill="#5CB0FB" fill-rule="evenodd"/>
<path d="M 528.0,776.0 L 526.0,776.0 L 525.0,779.0 L 527.0,779.0 Z" fill="#5CB0FB" fill-rule="evenodd"/>
<path d="M 555.0,774.0 L 553.0,775.0 L 553.0,783.0 L 555.0,783.0 L 556.0,779.0 Z" fill="#5CB0FB" fill-rule="evenodd"/>
<path d="M 549.0,757.0 L 548.0,761.0 L 550.0,762.0 Z" fill="#5CB0FB" fill-rule="evenodd"/>
<path d="M 559.0,727.0 L 563.0,731.0 L 562.0,727.0 Z" fill="#5CB0FB" fill-rule="evenodd"/>
<path d="M 350.0,711.0 L 350.0,718.0 L 354.0,718.0 L 359.0,722.0 Z" fill="#5CB0FB" fill-rule="evenodd"/>
<path d="M 567.0,699.0 L 569.0,710.0 L 567.0,717.0 L 561.0,721.0 L 561.0,723.0 L 564.0,724.0 L 566.0,722.0 L 564.0,723.0 L 563.0,721.0 L 568.0,719.0 L 573.0,713.0 L 570.0,702.0 Z" fill="#5CB0FB" fill-rule="evenodd"/>
<path d="M 345.0,699.0 L 340.0,700.0 L 339.0,710.0 L 345.0,702.0 L 347.0,703.0 Z" fill="#5CB0FB" fill-rule="evenodd"/>
<path d="M 567.0,688.0 L 563.0,689.0 L 563.0,693.0 L 566.0,693.0 Z" fill="#5CB0FB" fill-rule="evenodd"/>
<path d="M 296.0,683.0 L 287.0,685.0 L 279.0,692.0 L 269.0,693.0 L 257.0,702.0 L 250.0,716.0 L 242.0,754.0 L 247.0,769.0 L 252.0,770.0 L 257.0,775.0 L 267.0,775.0 L 271.0,779.0 L 272.0,785.0 L 279.0,789.0 L 280.0,796.0 L 276.0,807.0 L 282.0,820.0 L 286.0,840.0 L 282.0,852.0 L 283.0,861.0 L 292.0,877.0 L 295.0,888.0 L 307.0,904.0 L 308.0,909.0 L 313.0,913.0 L 318.0,911.0 L 325.0,912.0 L 334.0,900.0 L 333.0,893.0 L 339.0,888.0 L 335.0,877.0 L 349.0,866.0 L 344.0,837.0 L 348.0,831.0 L 367.0,816.0 L 347.0,814.0 L 336.0,807.0 L 327.0,796.0 L 319.0,769.0 L 319.0,743.0 L 322.0,724.0 L 318.0,714.0 L 314.0,710.0 L 314.0,706.0 L 318.0,701.0 L 314.0,695.0 L 307.0,690.0 L 300.0,689.0 Z M 329.0,819.0 L 334.0,821.0 L 334.0,825.0 L 331.0,829.0 L 326.0,827.0 Z" fill="#5CB0FB" fill-rule="evenodd"/>
<path d="M 546.0,639.0 L 548.0,646.0 L 562.0,656.0 L 555.0,643.0 Z" fill="#5CB0FB" fill-rule="evenodd"/>
<path d="M 423.0,621.0 L 421.0,620.0 L 419.0,623.0 Z" fill="#5CB0FB" fill-rule="evenodd"/>
<path d="M 532.0,607.0 L 527.0,605.0 L 527.0,607.0 L 519.0,613.0 L 521.0,619.0 L 518.0,624.0 L 511.0,626.0 L 509.0,630.0 L 501.0,631.0 L 502.0,636.0 L 498.0,638.0 L 497.0,641.0 L 489.0,638.0 L 487.0,641.0 L 475.0,644.0 L 476.0,637.0 L 468.0,636.0 L 468.0,638.0 L 461.0,641.0 L 458.0,646.0 L 455.0,646.0 L 455.0,651.0 L 448.0,650.0 L 449.0,657.0 L 444.0,664.0 L 441.0,662.0 L 445.0,658.0 L 445.0,648.0 L 441.0,652.0 L 441.0,658.0 L 434.0,654.0 L 433.0,656.0 L 420.0,655.0 L 402.0,659.0 L 400.0,656.0 L 404.0,649.0 L 408.0,653.0 L 411.0,653.0 L 406.0,640.0 L 398.0,638.0 L 383.0,642.0 L 372.0,642.0 L 369.0,645.0 L 370.0,648.0 L 365.0,659.0 L 376.0,655.0 L 380.0,649.0 L 388.0,648.0 L 392.0,645.0 L 395.0,649.0 L 385.0,652.0 L 382.0,656.0 L 383.0,659.0 L 387.0,659.0 L 389.0,662.0 L 379.0,662.0 L 377.0,666.0 L 373.0,664.0 L 369.0,668.0 L 363.0,666.0 L 353.0,667.0 L 351.0,674.0 L 361.0,687.0 L 376.0,697.0 L 379.0,697.0 L 385.0,704.0 L 390.0,721.0 L 390.0,709.0 L 399.0,704.0 L 405.0,707.0 L 404.0,709.0 L 398.0,712.0 L 403.0,722.0 L 399.0,723.0 L 400.0,731.0 L 398.0,733.0 L 393.0,733.0 L 389.0,730.0 L 386.0,732.0 L 376.0,732.0 L 362.0,726.0 L 353.0,737.0 L 348.0,734.0 L 342.0,734.0 L 331.0,723.0 L 330.0,744.0 L 332.0,761.0 L 338.0,780.0 L 344.0,789.0 L 353.0,797.0 L 370.0,802.0 L 377.0,802.0 L 378.0,798.0 L 362.0,799.0 L 358.0,795.0 L 359.0,792.0 L 352.0,783.0 L 349.0,772.0 L 348.0,739.0 L 354.0,748.0 L 357.0,760.0 L 356.0,767.0 L 361.0,778.0 L 361.0,791.0 L 389.0,785.0 L 397.0,780.0 L 403.0,773.0 L 396.0,764.0 L 391.0,767.0 L 384.0,765.0 L 380.0,754.0 L 382.0,747.0 L 387.0,750.0 L 387.0,753.0 L 393.0,759.0 L 398.0,758.0 L 401.0,763.0 L 407.0,765.0 L 420.0,765.0 L 425.0,771.0 L 430.0,771.0 L 431.0,769.0 L 428.0,763.0 L 439.0,755.0 L 441.0,749.0 L 438.0,746.0 L 439.0,741.0 L 437.0,738.0 L 442.0,736.0 L 447.0,740.0 L 452.0,739.0 L 454.0,741.0 L 450.0,749.0 L 455.0,755.0 L 454.0,759.0 L 472.0,765.0 L 475.0,775.0 L 481.0,773.0 L 490.0,784.0 L 490.0,790.0 L 496.0,787.0 L 499.0,790.0 L 502.0,802.0 L 506.0,795.0 L 520.0,805.0 L 527.0,798.0 L 525.0,788.0 L 517.0,782.0 L 516.0,777.0 L 521.0,771.0 L 528.0,771.0 L 534.0,765.0 L 539.0,764.0 L 544.0,756.0 L 546.0,743.0 L 543.0,742.0 L 543.0,738.0 L 536.0,732.0 L 538.0,723.0 L 533.0,725.0 L 530.0,724.0 L 529.0,721.0 L 535.0,713.0 L 537.0,716.0 L 543.0,714.0 L 544.0,718.0 L 549.0,720.0 L 550.0,725.0 L 554.0,723.0 L 552.0,718.0 L 546.0,714.0 L 547.0,702.0 L 551.0,700.0 L 553.0,696.0 L 551.0,682.0 L 546.0,674.0 L 547.0,670.0 L 540.0,670.0 L 539.0,672.0 L 533.0,671.0 L 532.0,655.0 L 541.0,647.0 L 537.0,641.0 L 537.0,636.0 L 539.0,635.0 L 537.0,631.0 L 539.0,630.0 L 545.0,634.0 L 545.0,627.0 L 540.0,617.0 L 535.0,617.0 L 529.0,612.0 Z M 490.0,756.0 L 493.0,759.0 L 484.0,774.0 L 481.0,771.0 L 482.0,768.0 L 478.0,768.0 L 476.0,764.0 L 481.0,763.0 L 485.0,757.0 Z M 417.0,709.0 L 419.0,715.0 L 415.0,719.0 L 411.0,716.0 L 411.0,713.0 Z M 499.0,683.0 L 501.0,687.0 L 497.0,693.0 L 497.0,684.0 Z" fill="#5CB0FB" fill-rule="evenodd"/>
<path d="M 386.0,605.0 L 389.0,607.0 L 389.0,604.0 L 393.0,603.0 L 394.0,606.0 L 400.0,604.0 L 404.0,607.0 L 410.0,605.0 L 411.0,607.0 L 415.0,605.0 L 424.0,607.0 L 426.0,604.0 L 432.0,602.0 L 431.0,599.0 L 434.0,596.0 L 432.0,592.0 L 433.0,588.0 L 427.0,586.0 L 423.0,589.0 L 415.0,589.0 L 409.0,587.0 L 397.0,588.0 L 394.0,585.0 L 389.0,586.0 Z" fill="#5CB0FB" fill-rule="evenodd"/>
<path d="M 503.0,583.0 L 507.0,591.0 L 519.0,599.0 L 525.0,595.0 L 528.0,600.0 L 531.0,600.0 L 529.0,596.0 L 532.0,594.0 L 537.0,599.0 L 544.0,599.0 L 527.0,590.0 Z" fill="#5CB0FB" fill-rule="evenodd"/>
<path d="M 449.0,587.0 L 447.0,585.0 L 443.0,586.0 L 440.0,583.0 L 437.0,591.0 L 438.0,595.0 L 442.0,595.0 L 446.0,592.0 L 442.0,590.0 L 444.0,587.0 Z" fill="#5CB0FB" fill-rule="evenodd"/>
<path d="M 561.0,866.0 L 559.0,866.0 L 557.0,875.0 L 552.0,874.0 L 553.0,877.0 L 560.0,874.0 Z" fill="#024C92" fill-rule="evenodd"/>
<path d="M 320.0,702.0 L 317.0,711.0 L 320.0,713.0 L 323.0,721.0 L 326.0,706.0 Z" fill="#024C92" fill-rule="evenodd"/>
<path d="M 336.0,700.0 L 333.0,704.0 L 333.0,721.0 L 335.0,717.0 L 334.0,712.0 L 337.0,714.0 L 335.0,711.0 L 338.0,702.0 Z" fill="#024C92" fill-rule="evenodd"/>
<path d="M 328.0,696.0 L 329.0,699.0 L 330.0,697.0 Z" fill="#024C92" fill-rule="evenodd"/>
<path d="M 558.0,690.0 L 558.0,694.0 L 560.0,694.0 Z" fill="#024C92" fill-rule="evenodd"/>
<path d="M 553.0,681.0 L 554.0,686.0 L 556.0,686.0 Z" fill="#024C92" fill-rule="evenodd"/>
<path d="M 300.0,681.0 L 301.0,687.0 L 309.0,688.0 L 313.0,692.0 L 317.0,688.0 L 308.0,683.0 L 304.0,685.0 Z" fill="#024C92" fill-rule="evenodd"/>
<path d="M 283.0,659.0 L 270.0,675.0 L 258.0,698.0 L 273.0,689.0 L 279.0,690.0 L 286.0,683.0 L 292.0,683.0 L 297.0,680.0 L 287.0,670.0 Z" fill="#024C92" fill-rule="evenodd"/>
<path d="M 379.0,655.0 L 370.0,660.0 L 367.0,664.0 L 361.0,660.0 L 360.0,663.0 L 369.0,665.0 L 374.0,661.0 L 377.0,662.0 Z" fill="#024C92" fill-rule="evenodd"/>
<path d="M 382.0,651.0 L 380.0,653.0 L 382.0,653.0 Z" fill="#024C92" fill-rule="evenodd"/>
<path d="M 440.0,642.0 L 437.0,643.0 L 437.0,646.0 L 440.0,646.0 Z" fill="#024C92" fill-rule="evenodd"/>
<path d="M 301.0,637.0 L 303.0,639.0 L 303.0,637.0 Z" fill="#024C92" fill-rule="evenodd"/>
<path d="M 549.0,600.0 L 541.0,603.0 L 533.0,599.0 L 530.0,603.0 L 536.0,607.0 L 533.0,612.0 L 543.0,616.0 L 543.0,621.0 L 548.0,628.0 L 547.0,636.0 L 555.0,640.0 L 560.0,646.0 L 565.0,659.0 L 563.0,660.0 L 554.0,655.0 L 546.0,647.0 L 546.0,643.0 L 542.0,638.0 L 539.0,640.0 L 544.0,646.0 L 543.0,649.0 L 539.0,650.0 L 535.0,655.0 L 535.0,669.0 L 544.0,665.0 L 557.0,675.0 L 556.0,678.0 L 558.0,680.0 L 561.0,679.0 L 562.0,685.0 L 565.0,686.0 L 566.0,684.0 L 569.0,686.0 L 569.0,694.0 L 567.0,696.0 L 571.0,699.0 L 573.0,706.0 L 576.0,708.0 L 575.0,711.0 L 577.0,714.0 L 574.0,717.0 L 577.0,719.0 L 577.0,725.0 L 582.0,730.0 L 582.0,735.0 L 584.0,736.0 L 582.0,739.0 L 585.0,739.0 L 585.0,748.0 L 588.0,752.0 L 587.0,762.0 L 591.0,766.0 L 589.0,767.0 L 591.0,800.0 L 588.0,802.0 L 587.0,816.0 L 584.0,818.0 L 594.0,817.0 L 594.0,821.0 L 596.0,822.0 L 601.0,816.0 L 617.0,818.0 L 622.0,823.0 L 625.0,823.0 L 631.0,819.0 L 635.0,812.0 L 637.0,813.0 L 635.0,820.0 L 625.0,827.0 L 633.0,836.0 L 631.0,838.0 L 625.0,838.0 L 621.0,833.0 L 617.0,833.0 L 614.0,839.0 L 610.0,840.0 L 605.0,838.0 L 602.0,840.0 L 600.0,838.0 L 602.0,831.0 L 596.0,830.0 L 597.0,834.0 L 594.0,837.0 L 592.0,835.0 L 594.0,829.0 L 590.0,830.0 L 586.0,826.0 L 587.0,829.0 L 585.0,831.0 L 580.0,831.0 L 585.0,836.0 L 585.0,839.0 L 576.0,841.0 L 577.0,850.0 L 574.0,848.0 L 571.0,851.0 L 573.0,853.0 L 567.0,855.0 L 564.0,865.0 L 565.0,867.0 L 568.0,866.0 L 568.0,857.0 L 571.0,855.0 L 580.0,859.0 L 588.0,847.0 L 591.0,849.0 L 600.0,848.0 L 601.0,851.0 L 598.0,858.0 L 606.0,862.0 L 611.0,843.0 L 614.0,842.0 L 616.0,850.0 L 620.0,853.0 L 621.0,864.0 L 625.0,867.0 L 630.0,880.0 L 629.0,893.0 L 625.0,901.0 L 611.0,920.0 L 601.0,926.0 L 591.0,925.0 L 589.0,918.0 L 583.0,916.0 L 582.0,911.0 L 577.0,908.0 L 565.0,911.0 L 556.0,917.0 L 549.0,917.0 L 545.0,920.0 L 538.0,919.0 L 539.0,904.0 L 536.0,898.0 L 538.0,895.0 L 536.0,890.0 L 533.0,891.0 L 532.0,894.0 L 534.0,898.0 L 524.0,897.0 L 520.0,903.0 L 516.0,903.0 L 513.0,906.0 L 510.0,904.0 L 503.0,909.0 L 501.0,908.0 L 496.0,913.0 L 492.0,912.0 L 485.0,915.0 L 486.0,919.0 L 484.0,921.0 L 480.0,920.0 L 480.0,916.0 L 464.0,919.0 L 428.0,918.0 L 427.0,921.0 L 424.0,919.0 L 426.0,918.0 L 424.0,915.0 L 412.0,914.0 L 410.0,910.0 L 406.0,911.0 L 400.0,907.0 L 393.0,907.0 L 397.0,909.0 L 390.0,910.0 L 388.0,905.0 L 385.0,905.0 L 382.0,902.0 L 383.0,899.0 L 381.0,897.0 L 379.0,898.0 L 376.0,893.0 L 374.0,896.0 L 370.0,894.0 L 367.0,898.0 L 362.0,896.0 L 358.0,891.0 L 354.0,890.0 L 355.0,888.0 L 357.0,889.0 L 355.0,886.0 L 358.0,880.0 L 350.0,876.0 L 348.0,871.0 L 347.0,873.0 L 342.0,873.0 L 339.0,877.0 L 339.0,880.0 L 342.0,882.0 L 341.0,887.0 L 345.0,888.0 L 336.0,893.0 L 337.0,899.0 L 331.0,910.0 L 323.0,915.0 L 312.0,915.0 L 306.0,910.0 L 305.0,905.0 L 293.0,889.0 L 290.0,878.0 L 281.0,862.0 L 280.0,851.0 L 283.0,844.0 L 282.0,830.0 L 274.0,808.0 L 277.0,790.0 L 270.0,786.0 L 268.0,778.0 L 256.0,777.0 L 253.0,773.0 L 247.0,772.0 L 243.0,767.0 L 242.0,760.0 L 240.0,760.0 L 242.0,819.0 L 244.0,820.0 L 254.0,858.0 L 266.0,884.0 L 285.0,913.0 L 306.0,936.0 L 329.0,955.0 L 353.0,970.0 L 399.0,988.0 L 410.0,990.0 L 415.0,987.0 L 423.0,990.0 L 439.0,990.0 L 443.0,993.0 L 449.0,993.0 L 454.0,990.0 L 455.0,987.0 L 475.0,988.0 L 478.0,985.0 L 496.0,989.0 L 520.0,984.0 L 557.0,968.0 L 597.0,939.0 L 592.0,939.0 L 592.0,932.0 L 595.0,929.0 L 600.0,929.0 L 602.0,931.0 L 601.0,935.0 L 611.0,925.0 L 627.0,905.0 L 642.0,881.0 L 658.0,841.0 L 665.0,803.0 L 665.0,771.0 L 658.0,733.0 L 648.0,705.0 L 638.0,685.0 L 615.0,652.0 L 580.0,619.0 Z M 428.0,953.0 L 432.0,951.0 L 435.0,954.0 L 430.0,956.0 Z M 448.0,921.0 L 464.0,920.0 L 465.0,924.0 L 449.0,925.0 Z M 445.0,920.0 L 447.0,921.0 L 446.0,925.0 L 444.0,924.0 Z M 441.0,920.0 L 443.0,921.0 L 442.0,925.0 L 440.0,924.0 Z M 403.0,913.0 L 406.0,914.0 L 407.0,912.0 L 408.0,915.0 L 404.0,917.0 Z M 516.0,910.0 L 514.0,913.0 L 509.0,914.0 L 506.0,912.0 L 504.0,914.0 L 500.0,913.0 L 503.0,910.0 Z M 374.0,898.0 L 376.0,897.0 L 377.0,899.0 Z M 576.0,851.0 L 578.0,850.0 L 579.0,852.0 Z M 639.0,816.0 L 640.0,815.0 L 644.0,820.0 L 641.0,821.0 Z M 576.0,715.0 L 579.0,713.0 L 582.0,715.0 Z" fill="#024C92" fill-rule="evenodd"/>
<path d="M 435.0,586.0 L 434.0,579.0 L 428.0,578.0 L 397.0,583.0 L 398.0,585.0 L 403.0,583.0 L 405.0,586.0 L 408.0,584.0 L 417.0,587.0 L 422.0,587.0 L 426.0,584.0 Z" fill="#024C92" fill-rule="evenodd"/>
<path d="M 527.0,602.0 L 524.0,599.0 L 518.0,601.0 L 509.0,596.0 L 497.0,581.0 L 486.0,579.0 L 473.0,581.0 L 467.0,577.0 L 472.0,582.0 L 466.0,585.0 L 463.0,581.0 L 461.0,583.0 L 457.0,577.0 L 455.0,577.0 L 454.0,581.0 L 445.0,582.0 L 448.0,583.0 L 452.0,589.0 L 444.0,597.0 L 435.0,598.0 L 435.0,604.0 L 428.0,607.0 L 427.0,610.0 L 417.0,608.0 L 412.0,610.0 L 400.0,610.0 L 398.0,607.0 L 391.0,610.0 L 383.0,607.0 L 384.0,611.0 L 372.0,627.0 L 374.0,632.0 L 371.0,637.0 L 372.0,640.0 L 378.0,640.0 L 393.0,636.0 L 406.0,636.0 L 410.0,639.0 L 410.0,644.0 L 412.0,643.0 L 414.0,645.0 L 412.0,647.0 L 419.0,646.0 L 419.0,650.0 L 421.0,648.0 L 424.0,649.0 L 426.0,644.0 L 431.0,642.0 L 435.0,636.0 L 442.0,637.0 L 447.0,635.0 L 449.0,639.0 L 442.0,643.0 L 448.0,641.0 L 451.0,643.0 L 453.0,641.0 L 457.0,642.0 L 459.0,637.0 L 466.0,637.0 L 466.0,635.0 L 458.0,631.0 L 460.0,626.0 L 464.0,626.0 L 464.0,629.0 L 468.0,630.0 L 471.0,634.0 L 475.0,633.0 L 479.0,639.0 L 484.0,638.0 L 485.0,635.0 L 495.0,637.0 L 499.0,635.0 L 498.0,631.0 L 500.0,629.0 L 509.0,627.0 L 511.0,623.0 L 516.0,623.0 L 517.0,612.0 L 524.0,607.0 Z M 498.0,622.0 L 499.0,625.0 L 492.0,632.0 L 489.0,627.0 Z M 415.0,625.0 L 422.0,617.0 L 430.0,622.0 L 428.0,625.0 Z M 512.0,610.0 L 513.0,607.0 L 516.0,609.0 L 514.0,611.0 Z M 452.0,583.0 L 456.0,583.0 L 457.0,586.0 L 454.0,587.0 Z" fill="#024C92" fill-rule="evenodd"/>
<path d="M 329.0,711.0 L 322.0,736.0 L 321.0,769.0 L 326.0,789.0 L 339.0,807.0 L 355.0,814.0 L 379.0,812.0 L 405.0,800.0 L 427.0,783.0 L 400.0,798.0 L 385.0,803.0 L 368.0,804.0 L 351.0,798.0 L 339.0,786.0 L 331.0,767.0 L 328.0,746.0 Z" fill="#F1F5F9" fill-rule="evenodd"/>
<path d="M 317.0,691.0 L 320.0,697.0 L 323.0,693.0 L 319.0,694.0 Z" fill="#F1F5F9" fill-rule="evenodd"/>
<path d="M 345.0,604.0 L 322.0,619.0 L 305.0,634.0 L 305.0,640.0 L 303.0,642.0 L 298.0,640.0 L 285.0,656.0 L 288.0,667.0 L 297.0,677.0 L 317.0,684.0 L 326.0,693.0 L 348.0,696.0 L 356.0,714.0 L 360.0,716.0 L 365.0,723.0 L 373.0,725.0 L 376.0,728.0 L 384.0,728.0 L 383.0,725.0 L 387.0,722.0 L 381.0,711.0 L 382.0,706.0 L 359.0,690.0 L 345.0,671.0 L 348.0,668.0 L 348.0,664.0 L 356.0,663.0 L 355.0,660.0 L 362.0,656.0 L 357.0,653.0 L 365.0,648.0 L 361.0,645.0 L 369.0,640.0 L 364.0,638.0 L 371.0,632.0 L 366.0,629.0 L 378.0,615.0 L 379.0,611.0 L 377.0,609.0 L 381.0,605.0 L 377.0,603.0 L 382.0,599.0 L 380.0,596.0 L 384.0,592.0 L 380.0,592.0 L 380.0,589.0 Z" fill="#F1F5F9" fill-rule="evenodd"/>
<path d="M 237.0,771.0 L 237.0,811.0 L 244.0,849.0 L 254.0,877.0 L 264.0,897.0 L 279.0,920.0 L 301.0,945.0 L 335.0,972.0 L 365.0,988.0 L 405.0,1001.0 L 431.0,1005.0 L 480.0,1004.0 L 527.0,992.0 L 557.0,978.0 L 590.0,955.0 L 615.0,930.0 L 632.0,907.0 L 650.0,872.0 L 649.0,871.0 L 629.0,907.0 L 600.0,940.0 L 568.0,965.0 L 538.0,981.0 L 512.0,990.0 L 475.0,997.0 L 447.0,998.0 L 402.0,992.0 L 371.0,982.0 L 332.0,961.0 L 306.0,940.0 L 278.0,908.0 L 256.0,870.0 L 246.0,843.0 L 240.0,817.0 Z" fill="#010D57" fill-rule="evenodd"/>
<path d="M 636.0,814.0 L 633.0,815.0 L 633.0,818.0 Z" fill="#397FC2" fill-rule="evenodd"/>
<path d="M 348.0,740.0 L 348.0,744.0 L 350.0,745.0 Z" fill="#397FC2" fill-rule="evenodd"/>
<path d="M 389.0,726.0 L 381.0,731.0 L 386.0,731.0 Z" fill="#397FC2" fill-rule="evenodd"/>
<path d="M 563.0,724.0 L 561.0,726.0 L 563.0,726.0 Z" fill="#397FC2" fill-rule="evenodd"/>
<path d="M 387.0,715.0 L 387.0,720.0 L 389.0,721.0 Z" fill="#397FC2" fill-rule="evenodd"/>
<path d="M 349.0,708.0 L 354.0,716.0 L 359.0,719.0 L 352.0,709.0 Z" fill="#397FC2" fill-rule="evenodd"/>
<path d="M 329.0,703.0 L 327.0,705.0 L 329.0,705.0 Z" fill="#397FC2" fill-rule="evenodd"/>
<path d="M 379.0,700.0 L 385.0,708.0 L 384.0,704.0 Z" fill="#397FC2" fill-rule="evenodd"/>
<path d="M 341.0,697.0 L 345.0,698.0 L 349.0,703.0 L 347.0,698.0 Z" fill="#397FC2" fill-rule="evenodd"/>
<path d="M 356.0,665.0 L 353.0,665.0 L 350.0,670.0 Z" fill="#397FC2" fill-rule="evenodd"/>
<path d="M 381.0,659.0 L 381.0,661.0 L 383.0,661.0 Z" fill="#397FC2" fill-rule="evenodd"/>
<path d="M 443.0,589.0 L 448.0,590.0 L 446.0,588.0 Z" fill="#397FC2" fill-rule="evenodd"/>
<path d="M 466.0,581.0 L 466.0,583.0 L 470.0,583.0 Z" fill="#397FC2" fill-rule="evenodd"/>
<path d="M 490.0,757.0 L 485.0,758.0 L 482.0,763.0 L 477.0,764.0 L 477.0,766.0 L 482.0,767.0 L 484.0,771.0 L 491.0,760.0 Z" fill="#BADDF7" fill-rule="evenodd"/>
<path d="M 440.0,737.0 L 438.0,739.0 L 442.0,751.0 L 433.0,762.0 L 429.0,763.0 L 432.0,770.0 L 426.0,773.0 L 430.0,775.0 L 428.0,777.0 L 429.0,779.0 L 440.0,771.0 L 435.0,777.0 L 436.0,787.0 L 440.0,800.0 L 447.0,812.0 L 452.0,807.0 L 453.0,794.0 L 468.0,782.0 L 470.0,778.0 L 474.0,776.0 L 472.0,766.0 L 459.0,763.0 L 453.0,759.0 L 454.0,755.0 L 449.0,750.0 L 452.0,740.0 L 447.0,741.0 Z" fill="#BADDF7" fill-rule="evenodd"/>
<path d="M 332.0,699.0 L 327.0,712.0 L 331.0,707.0 Z" fill="#BADDF7" fill-rule="evenodd"/>
<path d="M 449.0,921.0 L 449.0,924.0 L 464.0,924.0 L 464.0,921.0 Z" fill="#0358A7" fill-rule="evenodd"/>
<path d="M 510.0,911.0 L 508.0,911.0 L 508.0,913.0 Z" fill="#0358A7" fill-rule="evenodd"/>
<path d="M 588.0,848.0 L 589.0,851.0 L 590.0,849.0 Z" fill="#0358A7" fill-rule="evenodd"/>
<path d="M 580.0,822.0 L 578.0,822.0 L 579.0,825.0 L 576.0,827.0 L 577.0,831.0 L 580.0,827.0 Z" fill="#0358A7" fill-rule="evenodd"/>
<path d="M 329.0,821.0 L 331.0,826.0 L 332.0,823.0 Z" fill="#0358A7" fill-rule="evenodd"/>
<path d="M 425.0,775.0 L 420.0,767.0 L 407.0,767.0 L 398.0,763.0 L 398.0,766.0 L 405.0,773.0 L 398.0,782.0 L 383.0,789.0 L 361.0,793.0 L 360.0,795.0 L 362.0,797.0 L 378.0,796.0 L 382.0,799.0 L 398.0,796.0 L 422.0,781.0 Z" fill="#0358A7" fill-rule="evenodd"/>
<path d="M 382.0,749.0 L 384.0,759.0 L 387.0,760.0 L 386.0,764.0 L 393.0,764.0 L 395.0,761.0 L 391.0,760.0 L 386.0,755.0 L 385.0,750.0 Z" fill="#0358A7" fill-rule="evenodd"/>
<path d="M 350.0,749.0 L 351.0,772.0 L 354.0,783.0 L 359.0,787.0 L 360.0,780.0 L 355.0,768.0 L 352.0,749.0 Z" fill="#0358A7" fill-rule="evenodd"/>
<path d="M 581.0,730.0 L 572.0,722.0 L 570.0,723.0 L 571.0,726.0 L 566.0,727.0 L 566.0,731.0 L 562.0,734.0 L 558.0,732.0 L 560.0,730.0 L 557.0,727.0 L 554.0,729.0 L 553.0,727.0 L 549.0,728.0 L 547.0,720.0 L 543.0,720.0 L 542.0,718.0 L 536.0,719.0 L 534.0,715.0 L 534.0,719.0 L 531.0,722.0 L 535.0,723.0 L 539.0,721.0 L 543.0,723.0 L 539.0,725.0 L 537.0,731.0 L 539.0,731.0 L 549.0,743.0 L 547.0,744.0 L 546.0,755.0 L 539.0,766.0 L 528.0,772.0 L 530.0,777.0 L 527.0,781.0 L 523.0,779.0 L 525.0,775.0 L 524.0,772.0 L 518.0,777.0 L 520.0,783.0 L 528.0,790.0 L 528.0,799.0 L 519.0,808.0 L 506.0,797.0 L 504.0,803.0 L 507.0,812.0 L 511.0,813.0 L 516.0,819.0 L 518.0,827.0 L 514.0,829.0 L 517.0,830.0 L 519.0,835.0 L 522.0,833.0 L 525.0,836.0 L 523.0,845.0 L 529.0,845.0 L 531.0,847.0 L 542.0,845.0 L 543.0,847.0 L 552.0,848.0 L 558.0,844.0 L 557.0,850.0 L 561.0,846.0 L 559.0,844.0 L 562.0,843.0 L 566.0,849.0 L 563.0,852.0 L 561.0,849.0 L 561.0,853.0 L 563.0,854.0 L 560.0,857.0 L 559.0,855.0 L 556.0,857.0 L 556.0,852.0 L 553.0,851.0 L 552.0,853.0 L 550.0,850.0 L 546.0,852.0 L 524.0,851.0 L 509.0,839.0 L 503.0,829.0 L 493.0,820.0 L 495.0,817.0 L 500.0,818.0 L 509.0,825.0 L 505.0,815.0 L 500.0,810.0 L 500.0,798.0 L 497.0,790.0 L 490.0,792.0 L 488.0,790.0 L 488.0,784.0 L 480.0,775.0 L 474.0,778.0 L 470.0,784.0 L 456.0,796.0 L 454.0,808.0 L 459.0,816.0 L 455.0,820.0 L 452.0,817.0 L 452.0,811.0 L 447.0,815.0 L 442.0,812.0 L 442.0,808.0 L 436.0,797.0 L 434.0,784.0 L 431.0,784.0 L 404.0,805.0 L 384.0,815.0 L 368.0,818.0 L 356.0,826.0 L 357.0,828.0 L 349.0,833.0 L 351.0,835.0 L 346.0,837.0 L 349.0,841.0 L 347.0,843.0 L 349.0,846.0 L 347.0,850.0 L 351.0,853.0 L 350.0,862.0 L 352.0,867.0 L 351.0,871.0 L 353.0,872.0 L 351.0,875.0 L 353.0,876.0 L 354.0,874.0 L 356.0,876.0 L 356.0,871.0 L 367.0,866.0 L 371.0,860.0 L 377.0,868.0 L 374.0,872.0 L 371.0,889.0 L 382.0,896.0 L 385.0,904.0 L 388.0,904.0 L 390.0,909.0 L 392.0,909.0 L 393.0,906.0 L 400.0,906.0 L 403.0,909.0 L 410.0,909.0 L 412.0,913.0 L 416.0,910.0 L 417.0,913.0 L 424.0,914.0 L 425.0,916.0 L 428.0,915.0 L 432.0,918.0 L 464.0,918.0 L 465.0,915.0 L 466.0,917.0 L 480.0,915.0 L 481.0,920.0 L 484.0,920.0 L 483.0,914.0 L 488.0,914.0 L 494.0,909.0 L 496.0,911.0 L 505.0,905.0 L 509.0,905.0 L 510.0,902.0 L 513.0,901.0 L 515.0,903.0 L 522.0,900.0 L 524.0,896.0 L 529.0,896.0 L 539.0,884.0 L 542.0,885.0 L 542.0,883.0 L 538.0,885.0 L 538.0,881.0 L 548.0,881.0 L 544.0,878.0 L 551.0,876.0 L 551.0,874.0 L 555.0,872.0 L 557.0,874.0 L 558.0,869.0 L 556.0,868.0 L 562.0,865.0 L 566.0,858.0 L 564.0,853.0 L 567.0,854.0 L 565.0,850.0 L 568.0,848.0 L 568.0,842.0 L 582.0,840.0 L 579.0,838.0 L 582.0,837.0 L 582.0,835.0 L 573.0,833.0 L 572.0,829.0 L 574.0,828.0 L 573.0,825.0 L 576.0,824.0 L 576.0,820.0 L 570.0,823.0 L 568.0,822.0 L 567.0,824.0 L 564.0,823.0 L 569.0,826.0 L 565.0,830.0 L 567.0,832.0 L 565.0,839.0 L 558.0,841.0 L 557.0,836.0 L 555.0,837.0 L 553.0,834.0 L 550.0,835.0 L 548.0,839.0 L 543.0,839.0 L 542.0,837.0 L 536.0,839.0 L 529.0,830.0 L 529.0,825.0 L 535.0,823.0 L 549.0,806.0 L 555.0,810.0 L 556.0,813.0 L 552.0,815.0 L 553.0,820.0 L 557.0,821.0 L 553.0,826.0 L 552.0,832.0 L 555.0,832.0 L 557.0,823.0 L 561.0,819.0 L 571.0,819.0 L 571.0,817.0 L 576.0,816.0 L 578.0,812.0 L 580.0,815.0 L 585.0,813.0 L 585.0,809.0 L 587.0,808.0 L 585.0,806.0 L 587.0,803.0 L 585.0,802.0 L 590.0,799.0 L 588.0,795.0 L 589.0,764.0 L 586.0,762.0 L 587.0,752.0 L 584.0,748.0 L 584.0,740.0 L 581.0,739.0 Z M 488.0,814.0 L 491.0,815.0 L 489.0,816.0 Z M 580.0,812.0 L 582.0,811.0 L 583.0,813.0 L 581.0,814.0 Z M 487.0,797.0 L 488.0,802.0 L 485.0,807.0 L 484.0,800.0 Z M 552.0,797.0 L 553.0,795.0 L 555.0,796.0 Z M 565.0,786.0 L 569.0,791.0 L 564.0,798.0 L 566.0,798.0 L 570.0,792.0 L 573.0,799.0 L 570.0,807.0 L 565.0,807.0 L 565.0,803.0 L 561.0,805.0 L 560.0,802.0 L 562.0,798.0 L 556.0,793.0 L 561.0,790.0 L 565.0,794.0 Z M 554.0,772.0 L 558.0,776.0 L 557.0,783.0 L 563.0,785.0 L 562.0,788.0 L 558.0,787.0 L 560.0,789.0 L 557.0,791.0 L 551.0,782.0 L 551.0,774.0 Z M 550.0,754.0 L 552.0,756.0 L 552.0,763.0 L 550.0,765.0 L 547.0,762.0 L 547.0,758.0 Z" fill="#0358A7" fill-rule="evenodd"/>
<path d="M 417.0,713.0 L 414.0,712.0 L 412.0,715.0 L 415.0,716.0 Z" fill="#0358A7" fill-rule="evenodd"/>
<path d="M 336.0,715.0 L 335.0,721.0 L 337.0,723.0 L 335.0,725.0 L 339.0,729.0 L 342.0,728.0 L 344.0,732.0 L 346.0,730.0 L 352.0,735.0 L 359.0,729.0 L 354.0,728.0 L 353.0,723.0 L 356.0,724.0 L 354.0,721.0 L 348.0,721.0 L 347.0,712.0 L 345.0,713.0 L 343.0,711.0 L 345.0,714.0 L 342.0,721.0 L 339.0,721.0 L 338.0,715.0 Z" fill="#0358A7" fill-rule="evenodd"/>
<path d="M 401.0,706.0 L 391.0,710.0 L 394.0,721.0 L 390.0,728.0 L 395.0,732.0 L 398.0,731.0 L 397.0,722.0 L 401.0,721.0 L 398.0,719.0 L 396.0,711.0 L 401.0,709.0 Z" fill="#0358A7" fill-rule="evenodd"/>
<path d="M 555.0,699.0 L 549.0,704.0 L 551.0,708.0 L 548.0,712.0 L 550.0,715.0 L 552.0,714.0 L 553.0,717.0 L 558.0,716.0 L 557.0,721.0 L 560.0,721.0 L 560.0,717.0 L 565.0,714.0 L 565.0,709.0 L 563.0,705.0 L 560.0,706.0 L 561.0,700.0 L 557.0,701.0 Z" fill="#0358A7" fill-rule="evenodd"/>
<path d="M 556.0,692.0 L 556.0,696.0 L 561.0,698.0 Z" fill="#0358A7" fill-rule="evenodd"/>
<path d="M 418.0,648.0 L 416.0,651.0 L 418.0,651.0 Z" fill="#0358A7" fill-rule="evenodd"/>
</g>
</svg>